<svg xmlns="http://www.w3.org/2000/svg" width="21.917" height="22" viewBox="0 0 21.917 22">
  <g id="chrome" transform="translate(0 0)">
    <path id="Path_4" data-name="Path 4" d="M45.9,0a11.226,11.226,0,0,1,9.886,6.2H45.352S43.381,6.14,41.7,8.531a4.881,4.881,0,0,0-.42,4.07c-.84-1.421-4.458-7.721-4.458-7.721A10.876,10.876,0,0,1,45.9,0Z" transform="translate(-34.971 0)" fill="#ff5043"/>
    <path id="Path_5" data-name="Path 5" d="M212.42,133.187a11.226,11.226,0,0,1-10.315,5.458l5.219-9.036s1.041-1.674-.188-4.325a4.881,4.881,0,0,0-3.315-2.4c1.651-.016,8.916,0,8.916,0A10.876,10.876,0,0,1,212.42,133.187Z" transform="translate(-191.941 -116.699)" fill="#ffcf2f"/>
    <path id="Path_6" data-name="Path 6" d="M1.427,108.493A11.226,11.226,0,0,1,1.858,96.83l5.216,9.038s.929,1.739,3.839,2a4.881,4.881,0,0,0,3.736-1.671c-.812,1.438-4.459,7.721-4.459,7.721A10.876,10.876,0,0,1,1.427,108.493Z" transform="translate(0 -91.96)" fill="#00a159"/>
    <path id="Path_7" data-name="Path 7" d="M202.1,291.385l1.468-6.125a4.912,4.912,0,0,0,2.966-1.61C205.7,285.127,202.1,291.385,202.1,291.385Z" transform="translate(-191.941 -269.385)" fill="#008b4b"/>
    <path id="Path_8" data-name="Path 8" d="M119.59,127.767a4.889,4.889,0,1,1,4.889,4.889A4.889,4.889,0,0,1,119.59,127.767Z" transform="translate(-113.576 -116.699)" fill="#fff"/>
    <path id="Path_9" data-name="Path 9" d="M135.86,143.223a4.071,4.071,0,1,1,4.071,4.071,4.071,4.071,0,0,1-4.071-4.071Z" transform="translate(-129.028 -132.154)" fill="#008bf8"/>
    <path id="Path_10" data-name="Path 10" d="M245.129,122.975l-6.044,1.772a4.912,4.912,0,0,0-2.872-1.773C237.912,122.968,245.129,122.975,245.129,122.975Z" transform="translate(-224.334 -116.788)" fill="#f9ad28"/>
    <path id="Path_11" data-name="Path 11" d="M41.168,104.538c-.849-1.471-4.341-7.5-4.341-7.5l4.477,4.429a4.391,4.391,0,0,0-.286,2.3Z" transform="translate(-34.975 -92.157)" fill="#d84132"/>
  </g>
</svg>
