<svg xmlns="http://www.w3.org/2000/svg" xmlns:xlink="http://www.w3.org/1999/xlink" width="24.32" height="24.323" viewBox="0 0 24.32 24.323">
  <defs>
    <linearGradient id="linear-gradient" y1="-0.136" x2="1" y2="-0.136" gradientUnits="objectBoundingBox">
      <stop offset="0" stop-color="#0c59a4"/>
      <stop offset="1" stop-color="#114a8b"/>
    </linearGradient>
    <radialGradient id="radial-gradient" cx="0.552" cy="0.509" r="0.62" gradientTransform="matrix(0.863, 0, 0, -0.95, 0.076, -0.457)" gradientUnits="objectBoundingBox">
      <stop offset="0.72" stop-opacity="0"/>
      <stop offset="0.95" stop-opacity="0.529"/>
      <stop offset="1"/>
    </radialGradient>
    <linearGradient id="linear-gradient-2" x1="0.906" y1="0.521" x2="0.245" y2="-0.063" gradientUnits="objectBoundingBox">
      <stop offset="0" stop-color="#1b9de2"/>
      <stop offset="0.16" stop-color="#1595df"/>
      <stop offset="0.67" stop-color="#0680d7"/>
      <stop offset="1" stop-color="#0078d4"/>
    </linearGradient>
    <radialGradient id="radial-gradient-2" cx="0.418" cy="0.726" r="0.69" gradientTransform="matrix(0.185, -0.989, -0.986, -0.121, -1.622, -1.971)" gradientUnits="objectBoundingBox">
      <stop offset="0.76" stop-opacity="0"/>
      <stop offset="0.95" stop-opacity="0.502"/>
      <stop offset="1"/>
    </radialGradient>
    <radialGradient id="radial-gradient-3" cx="0.101" cy="0.278" r="1.188" gradientTransform="matrix(-0.025, 0.999, 1.417, 0.08, -4.264, 2.626)" gradientUnits="objectBoundingBox">
      <stop offset="0" stop-color="#35c1f1"/>
      <stop offset="0.11" stop-color="#34c1ed"/>
      <stop offset="0.23" stop-color="#2fc2df"/>
      <stop offset="0.31" stop-color="#2bc3d2"/>
      <stop offset="0.67" stop-color="#36c752"/>
    </radialGradient>
    <radialGradient id="radial-gradient-4" cx="0.938" cy="0.454" r="0.571" gradientTransform="matrix(0.187, 0.96, 0.52, -0.228, -0.535, 2.661)" gradientUnits="objectBoundingBox">
      <stop offset="0" stop-color="#66eb6e"/>
      <stop offset="1" stop-color="#66eb6e" stop-opacity="0"/>
    </radialGradient>
  </defs>
  <g id="microsoft-edge-1" transform="translate(0.02)">
    <path id="Path_12" data-name="Path 12" d="M79.7,113.593a8.9,8.9,0,0,1-1,.447,9.677,9.677,0,0,1-3.41.614c-4.5,0-8.411-3.092-8.411-7.06A2.99,2.99,0,0,1,68.441,105c-4.066.171-5.111,4.408-5.111,6.89,0,7.018,6.468,7.73,7.862,7.73a10.128,10.128,0,0,0,2.565-.433l.124-.042a12.191,12.191,0,0,0,6.327-5.016.38.38,0,0,0-.505-.536Z" transform="translate(-57.772 -95.493)" fill="url(#linear-gradient)"/>
    <path id="Path_13" data-name="Path 13" d="M79.7,113.593a8.9,8.9,0,0,1-1,.447,9.677,9.677,0,0,1-3.41.614c-4.5,0-8.411-3.092-8.411-7.06A2.99,2.99,0,0,1,68.441,105c-4.066.171-5.111,4.408-5.111,6.89,0,7.018,6.468,7.73,7.862,7.73a10.128,10.128,0,0,0,2.565-.433l.124-.042a12.191,12.191,0,0,0,6.327-5.016.38.38,0,0,0-.505-.536Z" transform="translate(-57.772 -95.493)" opacity="0.35" fill="url(#radial-gradient)"/>
    <path id="Path_14" data-name="Path 14" d="M14.748,71.42a7.524,7.524,0,0,1-2.16-2.027,7.668,7.668,0,0,1,2.805-11.4,3.175,3.175,0,0,1,1.476-.38,3.073,3.073,0,0,1,2.44,1.235,3.028,3.028,0,0,1,.6,1.773c0-.02,2.324-7.561-7.6-7.561a7.979,7.979,0,0,0-7.6,7.429,12.363,12.363,0,0,0,1.15,5.32,12.159,12.159,0,0,0,14.855,6.375,7.177,7.177,0,0,1-5.964-.76Z" transform="translate(-4.725 -48.487)" fill="url(#linear-gradient-2)"/>
    <path id="Path_15" data-name="Path 15" d="M14.748,71.42a7.524,7.524,0,0,1-2.16-2.027,7.668,7.668,0,0,1,2.805-11.4,3.175,3.175,0,0,1,1.476-.38,3.073,3.073,0,0,1,2.44,1.235,3.028,3.028,0,0,1,.6,1.773c0-.02,2.324-7.561-7.6-7.561a7.979,7.979,0,0,0-7.6,7.429,12.363,12.363,0,0,0,1.15,5.32,12.159,12.159,0,0,0,14.855,6.375,7.177,7.177,0,0,1-5.964-.76Z" transform="translate(-4.725 -48.487)" opacity="0.41" fill="url(#radial-gradient-2)"/>
    <path id="Path_16" data-name="Path 16" d="M19.08,19.061c-.077.1-.313.237-.313.538a.884.884,0,0,0,.448.687,7.791,7.791,0,0,0,3.948.825,5.658,5.658,0,0,0,2.875-.793,5.831,5.831,0,0,0,2.891-5.023,8.406,8.406,0,0,0-1.077-4.171c-2.013-3.937-6.358-6.2-11.083-6.2A12.159,12.159,0,0,0,4.61,16.909c.046-3.472,3.5-6.276,7.6-6.276a9.191,9.191,0,0,1,3.99.957,6.894,6.894,0,0,1,2.931,2.775,6.11,6.11,0,0,1,.692,2.8A3.432,3.432,0,0,1,19.08,19.061Z" transform="translate(-4.63 -4.92)" fill="url(#radial-gradient-3)"/>
    <path id="Path_17" data-name="Path 17" d="M19.08,19.061c-.077.1-.313.237-.313.538a.884.884,0,0,0,.448.687,7.791,7.791,0,0,0,3.948.825,5.658,5.658,0,0,0,2.875-.793,5.831,5.831,0,0,0,2.891-5.023,8.406,8.406,0,0,0-1.077-4.171c-2.013-3.937-6.358-6.2-11.083-6.2A12.159,12.159,0,0,0,4.61,16.909c.046-3.472,3.5-6.276,7.6-6.276a9.191,9.191,0,0,1,3.99.957,6.894,6.894,0,0,1,2.931,2.775,6.11,6.11,0,0,1,.692,2.8A3.432,3.432,0,0,1,19.08,19.061Z" transform="translate(-4.63 -4.92)" fill="url(#radial-gradient-4)"/>
  </g>
</svg>
