<svg xmlns="http://www.w3.org/2000/svg" xmlns:xlink="http://www.w3.org/1999/xlink" width="26" height="29.595" viewBox="0 0 26 29.595">
  <defs>
    <clipPath id="clip-path">
      <path id="Path_38" data-name="Path 38" d="M206.654,226.112l-11.6,6.695a1.4,1.4,0,0,0-.7,1.213v13.4a1.4,1.4,0,0,0,.7,1.213l11.6,6.7a1.4,1.4,0,0,0,1.4,0l11.6-6.7a1.4,1.4,0,0,0,.7-1.213v-13.4a1.4,1.4,0,0,0-.7-1.213l-11.6-6.695a1.41,1.41,0,0,0-1.4,0" transform="translate(-194.354 -225.925)"/>
    </clipPath>
    <linearGradient id="linear-gradient" x1="-0.847" y1="-1.034" x2="-0.838" y2="-1.034" gradientUnits="objectBoundingBox">
      <stop offset="0.3" stop-color="#3e863d"/>
      <stop offset="0.5" stop-color="#55934f"/>
      <stop offset="0.8" stop-color="#5aad45"/>
    </linearGradient>
    <clipPath id="clip-path-2">
      <path id="Path_40" data-name="Path 40" d="M195.4,248.375a1.4,1.4,0,0,0,.413.362l9.95,5.747,1.657.953a1.406,1.406,0,0,0,.808.183,1.431,1.431,0,0,0,.275-.05l12.234-22.4a1.386,1.386,0,0,0-.326-.259l-7.6-4.386-4.015-2.31a1.464,1.464,0,0,0-.363-.146Zm0,0" transform="translate(-195.398 -226.069)"/>
    </clipPath>
    <linearGradient id="linear-gradient-2" x1="-0.742" y1="-0.932" x2="-0.737" y2="-0.932" gradientUnits="objectBoundingBox">
      <stop offset="0.57" stop-color="#3e863d"/>
      <stop offset="0.72" stop-color="#619857"/>
      <stop offset="1" stop-color="#76ac64"/>
    </linearGradient>
    <clipPath id="clip-path-3">
      <path id="Path_42" data-name="Path 42" d="M209.148,225.939a1.415,1.415,0,0,0-.56.18l-11.566,6.676,12.472,22.717a1.391,1.391,0,0,0,.5-.172l11.6-6.7a1.405,1.405,0,0,0,.677-.957l-12.714-21.72a1.456,1.456,0,0,0-.284-.028c-.039,0-.077,0-.116.006" transform="translate(-197.021 -225.934)"/>
    </clipPath>
    <linearGradient id="linear-gradient-3" x1="-2.148" y1="-2.103" x2="-2.138" y2="-2.103" gradientUnits="objectBoundingBox">
      <stop offset="0.16" stop-color="#6bbf47"/>
      <stop offset="0.38" stop-color="#79b461"/>
      <stop offset="0.47" stop-color="#75ac64"/>
      <stop offset="0.7" stop-color="#659e5a"/>
      <stop offset="0.9" stop-color="#3e863d"/>
    </linearGradient>
  </defs>
  <g id="node" transform="translate(-116.048 -61.909)">
    <g id="Group_13" data-name="Group 13" transform="translate(116.048 61.909)" clip-path="url(#clip-path)">
      <path id="Path_37" data-name="Path 37" d="M201.222,204.624,168.537,188.6l-16.759,34.188,32.684,16.022Zm0,0" transform="translate(-163.5 -198.879)" fill="url(#linear-gradient)"/>
    </g>
    <g id="Group_14" data-name="Group 14" transform="translate(116.335 61.949)" clip-path="url(#clip-path-2)">
      <path id="Path_39" data-name="Path 39" d="M144.07,204.651l23.079,31.236,30.522-22.55L174.591,182.1Zm0,0" transform="translate(-158.202 -194.206)" fill="url(#linear-gradient-2)"/>
    </g>
    <g id="Group_15" data-name="Group 15" transform="translate(116.782 61.911)" clip-path="url(#clip-path-3)">
      <path id="Path_41" data-name="Path 41" d="M197.02,225.934v29.578h25.242V225.934Zm0,0" transform="translate(-197.02 -225.934)" fill="url(#linear-gradient-3)"/>
    </g>
  </g>
</svg>
