<svg xmlns="http://www.w3.org/2000/svg" width="23" height="24.323" viewBox="0 0 23 24.323">
  <g id="store" transform="translate(0 0.323)">
    <path id="Path_3" data-name="Path 3" d="M17.693,6.162V5.616a4.759,4.759,0,0,0-1.784-3.752,4.83,4.83,0,0,1,.877,2.795v1.5h-.91v-1.5A4.523,4.523,0,0,0,11.5,0,4.526,4.526,0,0,0,7.122,4.659v1.5H0V22.548a1.724,1.724,0,0,0,1.668,1.775H21.332A1.724,1.724,0,0,0,23,22.548V6.162ZM8.03,4.659A3.584,3.584,0,0,1,11.5.966h0A3.669,3.669,0,0,1,14.97,4.66v1.5H9.846V5.617a3.586,3.586,0,0,1,3.468-3.694h0a2.933,2.933,0,0,1,.477.038,3.163,3.163,0,0,0-1.384-.325,3.4,3.4,0,0,0-2.825,1.55A4.855,4.855,0,0,0,8.94,5.616v.546H8.03v-1.5Z" transform="translate(0 -0.323)" fill="#333"/>
    <rect id="Rectangle_8" data-name="Rectangle 8" width="4.451" height="4.452" transform="translate(6.677 9.493)" fill="#f25022"/>
    <rect id="Rectangle_9" data-name="Rectangle 9" width="4.451" height="4.452" transform="translate(11.87 9.493)" fill="#7fba00"/>
    <rect id="Rectangle_10" data-name="Rectangle 10" width="4.451" height="4.451" transform="translate(6.677 14.686)" fill="#00a4ef"/>
    <rect id="Rectangle_11" data-name="Rectangle 11" width="4.451" height="4.451" transform="translate(11.87 14.686)" fill="#ffb900"/>
  </g>
</svg>
