<svg xmlns="http://www.w3.org/2000/svg" width="25.523" height="25.25" viewBox="0 0 25.523 25.25">
  <g id="visual-studio-code-1" transform="translate(-2.725 -13.962)">
    <path id="Path_18" data-name="Path 18" d="M2.968,246.554s-.622-.448.124-1.046l1.738-1.554a.738.738,0,0,1,1.023-.067l16.038,12.143v5.823s-.008.914-1.181.813Z" transform="translate(0 -223.787)" fill="#0085d1"/>
    <path id="Path_19" data-name="Path 19" d="M9.134,498.8,5,502.558s-.425.316,0,.881l1.919,1.746a.789.789,0,0,0,1.129-.067l4.383-3.323Z" transform="translate(-2.032 -472.28)" fill="#006eb1"/>
    <path id="Path_20" data-name="Path 20" d="M302.96,34.55l7.582-5.789-.049-5.792s-.324-1.264-1.4-.606L299,31.546Z" transform="translate(-288.601 -7.999)" fill="#0076b8"/>
    <path id="Path_21" data-name="Path 21" d="M688.723,38.885a1.043,1.043,0,0,0,.974.3l5.908-2.911a1.246,1.246,0,0,0,.65-1.155V17.736a1.162,1.162,0,0,0-.782-1.028l-5.121-2.468a1.422,1.422,0,0,0-1.852.124s.943-.679,1.4.606V37.958a1.044,1.044,0,0,1-.1.453c-.135.272-.427.526-1.129.42Z" transform="translate(-668.012)" fill="#22a7f2"/>
  </g>
</svg>
