<svg xmlns="http://www.w3.org/2000/svg" width="141.9" height="15.9" viewBox="0 0 141.9 15.9">
  <g id="Group_43" data-name="Group 43" transform="translate(-1658 -1045.899)">
    <path id="Settings" d="M1793.9,55.6V56l2,1.3-1.2,3-2.3-.5-.4.4.5,2.3-3,1.2-1.3-2h-.4l-1.3,2-3-1.2.5-2.3-.4-.4-2.3.5-1.2-3,2-1.3v-.4l-2-1.3,1.2-3,2.3.5.4-.4-.5-2.3,3-1.2,1.3,2h.4l1.3-2,3,1.2-.5,2.3.4.4,2.3-.5,1.2,3Zm-.9,1V55l1.8-1.1-.7-1.6-2.1.5c-.2-.2-.3-.4-.5-.5-.2-.2-.4-.3-.6-.5l.5-2.1-1.6-.7-1.2,1.8H1787l-1.1-1.8-1.6.7.5,2.1c-.2.2-.4.3-.5.5-.2.2-.3.4-.5.6l-2.1-.5L1781,54l1.8,1.2v1.6l-1.8,1.1.7,1.6,2.1-.5c.2.2.3.4.5.5.2.2.4.3.6.5l-.5,2.1,1.6.7,1.2-1.8h1.6l1.1,1.8,1.6-.7L1791,60c.2-.2.4-.3.5-.5.2-.2.3-.4.5-.6l2.1.5.7-1.6Zm-5-3.6a3.594,3.594,0,0,1,1.1.2,3.491,3.491,0,0,1,.9.6,2.836,2.836,0,0,1,.6.9,2.154,2.154,0,0,1,.2,1.1,3.6,3.6,0,0,1-.2,1.1,3.49,3.49,0,0,1-.6.9,2.836,2.836,0,0,1-.9.6,2.153,2.153,0,0,1-1.1.2,3.594,3.594,0,0,1-1.1-.2,3.491,3.491,0,0,1-.9-.6,2.836,2.836,0,0,1-.6-.9,2.154,2.154,0,0,1-.2-1.1,3.6,3.6,0,0,1,.2-1.1,3.49,3.49,0,0,1,.6-.9,2.836,2.836,0,0,1,.9-.6A1.978,1.978,0,0,1,1788,53Zm0,5a1.884,1.884,0,0,0,.8-.2c.2-.1.5-.3.7-.4s.3-.4.4-.7a1.7,1.7,0,0,0,0-1.6c-.1-.2-.3-.5-.4-.7s-.4-.3-.7-.4a2.353,2.353,0,0,0-.8-.2,1.884,1.884,0,0,0-.8.2c-.2.1-.5.3-.7.4s-.3.4-.4.7a1.7,1.7,0,0,0,0,1.6c.1.2.3.5.4.7s.4.3.7.4A2.353,2.353,0,0,0,1788,58Z" transform="translate(4 997.999)" fill="#0d0d0d"/>
    <g id="Audio" transform="translate(4 997.999)">
      <path id="Path_26" data-name="Path 26" d="M1760.9,63.8l-.7-.7a10.394,10.394,0,0,0,0-14.3l.7-.7a11.557,11.557,0,0,1,0,15.7" fill="#0d0d0d" opacity="0.4"/>
      <path id="Path_27" data-name="Path 27" d="M1758.7,61.8l-.7-.7a7.31,7.31,0,0,0,0-10.1l.7-.7a8.272,8.272,0,0,1,0,11.5" fill="#0d0d0d"/>
      <path id="Path_28" data-name="Path 28" d="M1756.5,59.7l-.7-.7a4.35,4.35,0,0,0,0-6l.7-.7a5.313,5.313,0,0,1,0,7.4" fill="#0d0d0d"/>
      <path id="Path_29" data-name="Path 29" d="M1753,51.4v9.2l-2.3-2.3-.3-.3H1749V54h1.4l.3-.3Zm1-1.4h-1l-3,3h-2v6h2l3,3h1Z" fill="#0d0d0d"/>
    </g>
    <g id="Wifi" transform="translate(4 997.999)">
      <path id="Path_22" data-name="Path 22" d="M1726,62h-1a4.951,4.951,0,0,1,5-5v1A4.012,4.012,0,0,0,1726,62Z" fill="#0d0d0d"/>
      <path id="Path_23" data-name="Path 23" d="M1723,62h-1a8.024,8.024,0,0,1,8-8v1A6.957,6.957,0,0,0,1723,62Z" fill="#0d0d0d"/>
      <path id="Path_24" data-name="Path 24" d="M1720,62h-1a10.968,10.968,0,0,1,11-11v1A10.029,10.029,0,0,0,1720,62Z" fill="#0d0d0d"/>
      <path id="Path_25" data-name="Path 25" d="M1730,61a1,1,0,1,1-1-1,.945.945,0,0,1,1,1" fill="#0d0d0d"/>
    </g>
    <g id="Icon" transform="translate(4 997.999)">
      <path id="Path_20" data-name="Path 20" d="M1699,60h-15V52h15Zm-14-1h13V53h-13Z" fill="#0d0d0d"/>
      <path id="Path_21" data-name="Path 21" d="M1700,57h-2V56h0V55h2Z" fill="#0d0d0d"/>
    </g>
    <path id="Icon-2" data-name="Icon" d="M1665.5,59.3l-5.5-5.5-5.5,5.5-.5-.6,6-6,6,6Z" transform="translate(4 997.999)" fill="#0d0d0d"/>
  </g>
</svg>
